<svg width="50" height="53" viewBox="0 0 50 53" fill="none" xmlns="http://www.w3.org/2000/svg">
<rect y="2" width="50" height="50" rx="16" fill="white"/>
<path d="M14.675 39.345L16.475 32.775L17.555 33.045V19.95H22.91L16.61 18.24L18.41 11.67L34.475 16.08V25.125L30.92 26.115L34.475 27.105V38.58L27.275 42.765L14.675 39.345ZM19.49 15.99L30.65 19.05V23.505L31.55 23.235V19.32L32.225 19.5L32.45 18.645L19.715 15.135L19.49 15.99ZM27.68 21.255L24.35 20.355V27.87L25.25 24.54L27.68 25.215V21.255ZM21.425 21.615H20.525V37.05L17.78 36.285L17.555 37.185L27.365 39.84L28.49 39.21L21.425 37.275V21.615ZM30.65 30.075V37.95L31.55 37.41V30.345L32.225 30.525L32.45 29.67L26.465 28.005L26.24 28.86L30.65 30.075ZM22.055 34.305L27.68 35.835V32.28L24.35 31.38V34.305H22.055Z" fill="black"/>
</svg>
